<svg xmlns="http://www.w3.org/2000/svg" width="20.539" height="20.539" viewBox="0 0 20.539 20.539"><defs><style>.a{fill:#fff;}</style></defs><g transform="translate(-4 -4)"><path class="a" d="M6.054,8.108H4V22.485a2.053,2.053,0,0,0,2.054,2.054H20.431V22.485H6.054ZM22.485,4H10.162A2.053,2.053,0,0,0,8.108,6.054V18.378a2.053,2.053,0,0,0,2.054,2.054H22.485a2.053,2.053,0,0,0,2.054-2.054V6.054A2.053,2.053,0,0,0,22.485,4Zm-1.027,9.243H11.189V11.189h10.27Zm-4.108,4.108H11.189V15.3h6.162Zm4.108-8.216H11.189V7.081h10.27Z"/></g></svg>