<svg xmlns="http://www.w3.org/2000/svg" width="23.384" height="26.725" viewBox="0 0 23.384 26.725"><path d="M7.725,15.033H5.637a.628.628,0,0,1-.626-.626V12.318a.628.628,0,0,1,.626-.626H7.725a.628.628,0,0,1,.626.626v2.088A.628.628,0,0,1,7.725,15.033Zm5.637-.626V12.318a.628.628,0,0,0-.626-.626H10.648a.628.628,0,0,0-.626.626v2.088a.628.628,0,0,0,.626.626h2.088A.628.628,0,0,0,13.362,14.406Zm5.011,0V12.318a.628.628,0,0,0-.626-.626H15.659a.628.628,0,0,0-.626.626v2.088a.628.628,0,0,0,.626.626h2.088A.628.628,0,0,0,18.373,14.406Zm-5.011,5.011V17.329a.628.628,0,0,0-.626-.626H10.648a.628.628,0,0,0-.626.626v2.088a.628.628,0,0,0,.626.626h2.088A.628.628,0,0,0,13.362,19.417Zm-5.011,0V17.329a.628.628,0,0,0-.626-.626H5.637a.628.628,0,0,0-.626.626v2.088a.628.628,0,0,0,.626.626H7.725A.628.628,0,0,0,8.351,19.417Zm10.022,0V17.329a.628.628,0,0,0-.626-.626H15.659a.628.628,0,0,0-.626.626v2.088a.628.628,0,0,0,.626.626h2.088A.628.628,0,0,0,18.373,19.417ZM23.384,5.846V24.219a2.506,2.506,0,0,1-2.505,2.505H2.505A2.506,2.506,0,0,1,0,24.219V5.846A2.506,2.506,0,0,1,2.505,3.341H5.011V.626A.628.628,0,0,1,5.637,0H7.725a.628.628,0,0,1,.626.626V3.341h6.681V.626A.628.628,0,0,1,15.659,0h2.088a.628.628,0,0,1,.626.626V3.341h2.505A2.506,2.506,0,0,1,23.384,5.846Zm-2.505,18.06V8.351H2.505V23.906a.314.314,0,0,0,.313.313H20.565A.314.314,0,0,0,20.879,23.906Z"/></svg>